# xmcd CD database file
#
# Track frame offsets:
#	150
#	15615
#	29535
#	42657
#	60706
#	79806
#	97119
#	128746
#	150175
#
# Disc length: 2305 seconds
#
# Revision: 2
# Processed by: cddbd v1.5.2PL0 Copyright (c) Steve Scherf et al.
# Submitted via: CDex 1.51
#
DISCID=6d08ff09
DTITLE=BIG JOE TURNER - ROOMFUL OF BLUES - Blues Train
DYEAR=1983
DGENRE=Bllues-Rock
TTITLE0=Crawdad Hole
TTITLE1=Red Sails In The Sunset
TTITLE2=Cocka-Doodle-Doo
TTITLE3=Jumpin' For Joe
TTITLE4=I Want A Little Girl
TTITLE5=Blues Train
TTITLE6=I Know You Love Me
TTITLE7=Last Night
TTITLE8=I Love The Way (My Baby Sings The Blues)
EXTD=YEAR: 1983
EXTT0=
EXTT1=
EXTT2=
EXTT3=
EXTT4=
EXTT5=
EXTT6=
EXTT7=
EXTT8=
PLAYORDER=
